<svg width="5" height="5" viewBox="0 0 5 5" fill="none" xmlns="http://www.w3.org/2000/svg">
<path d="M2.49875 5C2.5018 5 2.50485 5 2.50789 5C4.10591 4.99984 4.39681 4.95627 4.67447 4.67442C4.95267 4.39203 5 4.10465 5 2.5C5 0.895349 4.95017 0.601329 4.67447 0.325581C4.39929 0.0503575 4.10592 0.000190066 2.50789 5.40225e-07C2.50485 1.79663e-07 2.5018 0 2.49875 0C0.892709 0 0.601229 0.0431894 0.320545 0.325581C0.0406907 0.607973 0 0.895349 0 2.5C0 4.10465 0.043182 4.39867 0.320545 4.67442C0.597907 4.95017 0.89437 5 2.49875 5Z" fill="#004FE8"/>
</svg>
